<svg xmlns="http://www.w3.org/2000/svg" viewBox="0 0 960 560" width="960" height="560">
  <defs>
    <linearGradient id="accentGrad" x1="0%" y1="0%" x2="100%" y2="100%">
      <stop offset="0%" style="stop-color:#3b82f6"/>
      <stop offset="100%" style="stop-color:#2563eb"/>
    </linearGradient>
    <filter id="shadow" x="-2%" y="-2%" width="104%" height="108%">
      <feDropShadow dx="0" dy="8" stdDeviation="12" flood-color="#000" flood-opacity="0.4"/>
    </filter>
    <clipPath id="winClip"><rect x="0" y="0" width="960" height="560" rx="12"/></clipPath>
  </defs>

  <g filter="url(#shadow)" clip-path="url(#winClip)">
    <!-- macOS title bar -->
    <rect width="960" height="36" fill="#111827"/>
    <circle cx="20" cy="18" r="6" fill="#ff5f57"/>
    <circle cx="38" cy="18" r="6" fill="#febc2e"/>
    <circle cx="56" cy="18" r="6" fill="#28c840"/>
    <text x="480" y="23" font-family="-apple-system,system-ui,sans-serif" font-size="12" fill="#9ca3af" text-anchor="middle">DeskSearch — 127.0.0.1:3777</text>

    <!-- Sidebar -->
    <rect x="0" y="36" width="56" height="524" fill="#0f172a"/>
    <rect x="56" y="36" width="1" height="524" fill="#1e293b"/>

    <!-- Sidebar icons (Search active, then Dashboard, Files, Folders, Insights, Topics, Duplicates, Data Sources, Settings) -->
    <!-- Search tab (active) -->
    <rect x="4" y="44" width="48" height="40" rx="10" fill="#1e3a5f"/>
    <g transform="translate(18,52)" fill="none" stroke="#3b82f6" stroke-width="1.8" stroke-linecap="round">
      <circle cx="9" cy="9" r="7"/><line x1="14" y1="14" x2="19" y2="19"/>
    </g>

    <!-- Dashboard -->
    <g transform="translate(18,96)" fill="none" stroke="#6b7280" stroke-width="1.8" stroke-linecap="round">
      <rect x="1" y="1" width="7" height="7" rx="1.5"/><rect x="11" y="1" width="7" height="7" rx="1.5"/>
      <rect x="1" y="11" width="7" height="7" rx="1.5"/><rect x="11" y="11" width="7" height="7" rx="1.5"/>
    </g>

    <!-- Files -->
    <g transform="translate(18,136)" fill="none" stroke="#6b7280" stroke-width="1.8" stroke-linecap="round" stroke-linejoin="round">
      <path d="M4 19h12a2 2 0 002-2V7.41a1 1 0 00-.29-.7L13.29 2.29a1 1 0 00-.7-.29H4a2 2 0 00-2 2v13a2 2 0 002 2z"/>
    </g>

    <!-- Folders -->
    <g transform="translate(18,176)" fill="none" stroke="#6b7280" stroke-width="1.8" stroke-linecap="round" stroke-linejoin="round">
      <path d="M1 5v10a2 2 0 002 2h14a2 2 0 002-2V7a2 2 0 00-2-2h-6l-2-2H3a2 2 0 00-2 2z"/>
    </g>

    <!-- Settings (bottom) -->
    <g transform="translate(18,496)" fill="none" stroke="#6b7280" stroke-width="1.8" stroke-linecap="round">
      <circle cx="10" cy="10" r="3"/><path d="M10 1v2m0 14v2m-7-9H1m18 0h-2m-1.3-5.3l-1.4 1.4M5.7 14.3l-1.4 1.4m0-11.4l1.4 1.4m8.6 8.6l1.4 1.4"/>
    </g>

    <!-- Main content area -->
    <rect x="57" y="36" width="903" height="524" fill="#0f172a"/>

    <!-- Logo + App Name (centered above search) -->
    <rect x="462" y="68" width="36" height="36" rx="10" fill="url(#accentGrad)"/>
    <text x="480" y="94" font-family="-apple-system,system-ui,sans-serif" font-size="20" fill="#fff" text-anchor="middle" font-weight="700">D</text>

    <!-- Search bar -->
    <rect x="180" y="124" width="600" height="48" rx="14" fill="#1e293b" stroke="#334155" stroke-width="1"/>
    <!-- Magnifying glass in search bar -->
    <g transform="translate(196,137)" fill="none" stroke="#64748b" stroke-width="2" stroke-linecap="round">
      <circle cx="8" cy="8" r="6.5"/><line x1="13" y1="13" x2="17" y2="17"/>
    </g>
    <text x="224" y="154" font-family="-apple-system,system-ui,sans-serif" font-size="15" fill="#f1f5f9">quarterly revenue report</text>
    <!-- Shortcut hint -->
    <rect x="720" y="137" width="44" height="22" rx="5" fill="#0f172a" stroke="#334155" stroke-width="1"/>
    <text x="742" y="152" font-family="ui-monospace,monospace" font-size="11" fill="#64748b" text-anchor="middle">⌘ K</text>

    <!-- Quick stats row -->
    <text x="196" y="198" font-family="-apple-system,system-ui,sans-serif" font-size="12" fill="#64748b">1,247 files indexed</text>
    <text x="340" y="198" font-family="-apple-system,system-ui,sans-serif" font-size="12" fill="#475569">·</text>
    <text x="356" y="198" font-family="-apple-system,system-ui,sans-serif" font-size="12" fill="#64748b">Updated 5m ago</text>
    <text x="476" y="198" font-family="-apple-system,system-ui,sans-serif" font-size="12" fill="#475569">·</text>
    <text x="492" y="198" font-family="-apple-system,system-ui,sans-serif" font-size="12" fill="#64748b">12.3 MB</text>

    <!-- Results header -->
    <text x="196" y="234" font-family="-apple-system,system-ui,sans-serif" font-size="13" fill="#94a3b8" font-weight="500">23 results</text>
    <text x="268" y="234" font-family="-apple-system,system-ui,sans-serif" font-size="13" fill="#475569">·</text>
    <text x="282" y="234" font-family="ui-monospace,monospace" font-size="13" fill="#3b82f6" font-weight="600">0.83ms</text>

    <!-- Result card 1 -->
    <rect x="180" y="250" width="600" height="88" rx="12" fill="#1e293b" stroke="#334155" stroke-width="1"/>
    <!-- File icon -->
    <rect x="200" y="266" width="32" height="32" rx="8" fill="#1e3a5f"/>
    <text x="216" y="288" font-family="-apple-system,system-ui,sans-serif" font-size="16" fill="#3b82f6" text-anchor="middle">📊</text>
    <!-- File name + path -->
    <text x="246" y="282" font-family="-apple-system,system-ui,sans-serif" font-size="14" fill="#f1f5f9" font-weight="600">Q3-revenue-summary.xlsx</text>
    <text x="246" y="300" font-family="ui-monospace,monospace" font-size="10" fill="#64748b">~/Documents/Finance/Q3-revenue-summary.xlsx</text>
    <!-- Snippet -->
    <text x="246" y="322" font-family="-apple-system,system-ui,sans-serif" font-size="12" fill="#94a3b8">Total <tspan fill="#3b82f6" font-weight="600">revenue</tspan> for <tspan fill="#3b82f6" font-weight="600">Q3</tspan> reached $4.2M, a 23% increase over the previous <tspan fill="#3b82f6" font-weight="600">quarter</tspan>...</text>
    <!-- Score badge -->
    <rect x="720" y="268" width="44" height="22" rx="6" fill="#1e3a5f"/>
    <text x="742" y="283" font-family="ui-monospace,monospace" font-size="11" fill="#3b82f6" text-anchor="middle" font-weight="600">0.94</text>

    <!-- Result card 2 -->
    <rect x="180" y="348" width="600" height="88" rx="12" fill="#1e293b" stroke="#334155" stroke-width="1"/>
    <rect x="200" y="364" width="32" height="32" rx="8" fill="#1e3a5f"/>
    <text x="216" y="386" font-family="-apple-system,system-ui,sans-serif" font-size="16" fill="#3b82f6" text-anchor="middle">📄</text>
    <text x="246" y="380" font-family="-apple-system,system-ui,sans-serif" font-size="14" fill="#f1f5f9" font-weight="600">board-meeting-notes.pdf</text>
    <text x="246" y="398" font-family="ui-monospace,monospace" font-size="10" fill="#64748b">~/Documents/Meetings/board-meeting-notes.pdf</text>
    <text x="246" y="420" font-family="-apple-system,system-ui,sans-serif" font-size="12" fill="#94a3b8">The <tspan fill="#3b82f6" font-weight="600">quarterly</tspan> <tspan fill="#3b82f6" font-weight="600">revenue</tspan> growth was discussed at length. Cloud services division led...</text>
    <rect x="720" y="366" width="44" height="22" rx="6" fill="#172554"/>
    <text x="742" y="381" font-family="ui-monospace,monospace" font-size="11" fill="#60a5fa" text-anchor="middle" font-weight="600">0.87</text>

    <!-- Result card 3 -->
    <rect x="180" y="446" width="600" height="88" rx="12" fill="#1e293b" stroke="#334155" stroke-width="1"/>
    <rect x="200" y="462" width="32" height="32" rx="8" fill="#1e3a5f"/>
    <text x="216" y="484" font-family="-apple-system,system-ui,sans-serif" font-size="16" fill="#3b82f6" text-anchor="middle">📝</text>
    <text x="246" y="478" font-family="-apple-system,system-ui,sans-serif" font-size="14" fill="#f1f5f9" font-weight="600">financial-analysis.md</text>
    <text x="246" y="496" font-family="ui-monospace,monospace" font-size="10" fill="#64748b">~/Research/notes/financial-analysis.md</text>
    <text x="246" y="518" font-family="-apple-system,system-ui,sans-serif" font-size="12" fill="#94a3b8">Year-over-year <tspan fill="#3b82f6" font-weight="600">revenue</tspan> comparison shows consistent growth in SaaS subscriptions...</text>
    <rect x="720" y="464" width="44" height="22" rx="6" fill="#172554"/>
    <text x="742" y="479" font-family="ui-monospace,monospace" font-size="11" fill="#60a5fa" text-anchor="middle" font-weight="600">0.81</text>
  </g>
</svg>
